<?xml version="1.0" ?><!DOCTYPE svg  PUBLIC '-//W3C//DTD SVG 1.1//EN'  'http://www.w3.org/Graphics/SVG/1.1/DTD/svg11.dtd'><svg height="100%" style="fill-rule:evenodd;clip-rule:evenodd;stroke-linejoin:round;stroke-miterlimit:2;" version="1.1" viewBox="0 0 64 64" width="100%" xml:space="preserve" xmlns="http://www.w3.org/2000/svg" xmlns:serif="http://www.serif.com/" xmlns:xlink="http://www.w3.org/1999/xlink"><g id="Icon"><path d="M61,18c0,-3.978 -1.58,-7.794 -4.393,-10.607c-2.813,-2.813 -6.629,-4.393 -10.607,-4.393l-28,0c-3.978,-0 -7.794,1.58 -10.607,4.393c-2.813,2.813 -4.393,6.629 -4.393,10.607l0,28c-0,3.978 1.58,7.794 4.393,10.607c2.813,2.813 6.629,4.393 10.607,4.393l28,0c3.978,0 7.794,-1.58 10.607,-4.393c2.813,-2.813 4.393,-6.629 4.393,-10.607l0,-28Zm-2,0l0,28c0,3.448 -1.37,6.754 -3.808,9.192c-2.438,2.438 -5.744,3.808 -9.192,3.808l-28,-0c-3.448,0 -6.754,-1.37 -9.192,-3.808c-2.438,-2.438 -3.808,-5.744 -3.808,-9.192l0,-28c-0,-3.448 1.37,-6.754 3.808,-9.192c2.438,-2.438 5.744,-3.808 9.192,-3.808l28,0c3.448,-0 6.754,1.37 9.192,3.808c2.438,2.438 3.808,5.744 3.808,9.192Z"/><path d="M32,7c-13.798,0 -25,11.202 -25,25c0,13.798 11.202,25 25,25c13.798,-0 25,-11.202 25,-25c0,-13.798 -11.202,-25 -25,-25Zm0,2c12.694,0 23,10.306 23,23c0,12.694 -10.306,23 -23,23c-12.694,-0 -23,-10.306 -23,-23c0,-12.694 10.306,-23 23,-23Z"/><path d="M31.033,32.255l4.467,15.017c0.072,0.274 0.352,0.437 0.625,0.365c0.273,-0.072 0.436,-0.353 0.364,-0.626l-3.522,-15.266c-0.141,-0.534 -0.688,-0.853 -1.222,-0.712c-0.534,0.141 -0.853,0.688 -0.712,1.222Z"/><path d="M26.872,22.009l4.218,10.407c0.23,0.502 0.824,0.723 1.326,0.494c0.502,-0.23 0.723,-0.824 0.494,-1.326l-5.107,-10.001c-0.117,-0.257 -0.421,-0.37 -0.678,-0.253c-0.257,0.118 -0.37,0.422 -0.253,0.679Z"/><circle cx="32" cy="12" r="1"/><circle cx="32" cy="12" r="2" style="fill:none;"/><path d="M13.813,21.5c0.276,-0.478 0.889,-0.642 1.366,-0.366c0.478,0.276 0.642,0.888 0.367,1.366c-0.276,0.478 -0.889,0.642 -1.367,0.366c-0.477,-0.276 -0.641,-0.888 -0.366,-1.366Z"/><path d="M12.947,21c-0.551,0.956 -0.223,2.18 0.732,2.732c0.956,0.552 2.181,0.224 2.733,-0.732c0.551,-0.956 0.223,-2.18 -0.733,-2.732c-0.955,-0.552 -2.18,-0.224 -2.732,0.732Z" style="fill:none;"/><path d="M13.813,42.5c-0.275,-0.478 -0.111,-1.09 0.366,-1.366c0.478,-0.276 1.091,-0.112 1.367,0.366c0.275,0.478 0.111,1.09 -0.367,1.366c-0.477,0.276 -1.09,0.112 -1.366,-0.366Z"/><path d="M12.947,43c0.552,0.956 1.777,1.284 2.732,0.732c0.956,-0.552 1.284,-1.776 0.733,-2.732c-0.552,-0.956 -1.777,-1.284 -2.733,-0.732c-0.955,0.552 -1.283,1.776 -0.732,2.732Z" style="fill:none;"/><path d="M53,32c0,0.552 -0.448,1 -1,1c-0.552,0 -1,-0.448 -1,-1c0,-0.552 0.448,-1 1,-1c0.552,0 1,0.448 1,1Z"/><path d="M54,32c0,-1.104 -0.896,-2 -2,-2c-1.104,0 -2,0.896 -2,2c0,1.104 0.896,2 2,2c1.104,0 2,-0.896 2,-2Z" style="fill:none;"/><path d="M42.5,13.813c0.478,0.276 0.642,0.889 0.366,1.366c-0.276,0.478 -0.888,0.642 -1.366,0.367c-0.478,-0.276 -0.642,-0.889 -0.366,-1.367c0.276,-0.477 0.888,-0.641 1.366,-0.366Z"/><path d="M43,12.947c-0.956,-0.551 -2.18,-0.223 -2.732,0.732c-0.552,0.956 -0.224,2.181 0.732,2.733c0.956,0.551 2.18,0.223 2.732,-0.733c0.552,-0.955 0.224,-2.18 -0.732,-2.732Z" style="fill:none;"/><path d="M21.5,13.813c0.478,-0.275 1.09,-0.111 1.366,0.366c0.276,0.478 0.112,1.091 -0.366,1.367c-0.478,0.275 -1.09,0.111 -1.366,-0.367c-0.276,-0.477 -0.112,-1.09 0.366,-1.366Z"/><path d="M21,12.947c-0.956,0.552 -1.284,1.777 -0.732,2.732c0.552,0.956 1.776,1.284 2.732,0.733c0.956,-0.552 1.284,-1.777 0.732,-2.733c-0.552,-0.955 -1.776,-1.283 -2.732,-0.732Z" style="fill:none;"/><circle cx="32" cy="52" r="1"/><circle cx="32" cy="52" r="2" style="fill:none;"/><path d="M48.454,41.5c0.276,-0.478 0.889,-0.642 1.367,-0.366c0.477,0.276 0.641,0.888 0.366,1.366c-0.276,0.478 -0.889,0.642 -1.366,0.366c-0.478,-0.276 -0.642,-0.888 -0.367,-1.366Z"/><path d="M47.588,41c-0.551,0.956 -0.223,2.18 0.733,2.732c0.955,0.552 2.18,0.224 2.732,-0.732c0.551,-0.956 0.223,-2.18 -0.732,-2.732c-0.956,-0.552 -2.181,-0.224 -2.733,0.732Z" style="fill:none;"/><path d="M48.454,22.5c-0.275,-0.478 -0.111,-1.09 0.367,-1.366c0.477,-0.276 1.09,-0.112 1.366,0.366c0.275,0.478 0.111,1.09 -0.366,1.366c-0.478,0.276 -1.091,0.112 -1.367,-0.366Z"/><path d="M47.588,23c0.552,0.956 1.777,1.284 2.733,0.732c0.955,-0.552 1.283,-1.776 0.732,-2.732c-0.552,-0.956 -1.777,-1.284 -2.732,-0.732c-0.956,0.552 -1.284,1.776 -0.733,2.732Z" style="fill:none;"/><path d="M13,32c0,0.552 -0.448,1 -1,1c-0.552,0 -1,-0.448 -1,-1c0,-0.552 0.448,-1 1,-1c0.552,0 1,0.448 1,1Z"/><path d="M14,32c0,-1.104 -0.896,-2 -2,-2c-1.104,0 -2,0.896 -2,2c0,1.104 0.896,2 2,2c1.104,0 2,-0.896 2,-2Z" style="fill:none;"/><path d="M22.5,48.454c0.478,0.276 0.642,0.889 0.366,1.367c-0.276,0.477 -0.888,0.641 -1.366,0.366c-0.478,-0.276 -0.642,-0.889 -0.366,-1.366c0.276,-0.478 0.888,-0.642 1.366,-0.367Z"/><path d="M23,47.588c-0.956,-0.551 -2.18,-0.223 -2.732,0.733c-0.552,0.955 -0.224,2.18 0.732,2.732c0.956,0.551 2.18,0.223 2.732,-0.732c0.552,-0.956 0.224,-2.181 -0.732,-2.733Z" style="fill:none;"/><path d="M41.5,48.454c0.478,-0.275 1.09,-0.111 1.366,0.367c0.276,0.477 0.112,1.09 -0.366,1.366c-0.478,0.275 -1.09,0.111 -1.366,-0.366c-0.276,-0.478 -0.112,-1.091 0.366,-1.367Z"/><path d="M41,47.588c-0.956,0.552 -1.284,1.777 -0.732,2.733c0.552,0.955 1.776,1.283 2.732,0.732c0.956,-0.552 1.284,-1.777 0.732,-2.732c-0.552,-0.956 -1.776,-1.284 -2.732,-0.733Z" style="fill:none;"/></g></svg>